<svg id="Layer_1" data-name="Layer 1" xmlns="http://www.w3.org/2000/svg" viewBox="0 0 40 40"><g id="Layer_1-2" data-name="Layer 1-2"><rect width="40" height="40" rx="7.51" style="fill:#005b9e"/><path d="M9.1,34.44c.71-.84,1.43-1.67,2.13-2.52.23-.29.52-.22.81-.22,5.27,0,10.54,0,15.82,0,.57,0,.75-.13.73-.72-.06-1.12,0-2.24,0-3.37a.77.77,0,0,1,.22-.62c.84-.78,1.64-1.57,2.58-2.47v10h-.13a1.3,1.3,0,0,0-.68-.06H9.79A1.35,1.35,0,0,1,9.1,34.44Z" style="fill:#fff"/><path d="M9.1,34.44H30.52c.24,0,.51-.1.72.13H9Z" style="fill:#fff"/><path d="M9.09,5.44H31.37c0,3.24,0,6.48,0,9.72,0,0,0,.06-.1.14-.86-.83-1.7-1.65-2.56-2.45a.69.69,0,0,1-.16-.59c0-1.08,0-2.16,0-3.24,0-.63-.11-.84-.8-.84-5.26,0-10.52,0-15.77,0a1.13,1.13,0,0,1-1-.43C10.41,7,9.74,6.21,9.09,5.44Z" style="fill:#fff"/><path d="M32.83,19.54c-2.59-2.56-5.16-5.15-7.74-7.72A6.06,6.06,0,0,0,20.69,10H13.63c-.17,0-.38-.09-.54.11l2.77,3.23a.72.72,0,0,0,.67.23l4.52,0a5.31,5.31,0,0,1,4,2.76H18.83a2.6,2.6,0,0,0-2.22,1.15h4.58a.5.5,0,0,0,.35-.12A1.92,1.92,0,0,1,23.09,17c.78,0,1.57,0,2.35,0a1.24,1.24,0,0,1,1.12.73h-.7c-2.89,0-5.77,0-8.65,0a1.11,1.11,0,0,0-1.26.95,3.4,3.4,0,0,0,.45,0c1.64-.09,3.26,0,4.92-.22a38.44,38.44,0,0,1,5.58-.06.87.87,0,0,1,.85.52H16.39a2.9,2.9,0,0,0-.51,0,.69.69,0,0,0-.5.67c0,.29.34.11.52.12.6,0,1.19.05,1.78,0,3.52-.2,7,0,10.55-.09.24,0,.55,0,.53.3s-.32.27-.55.27c-3.31,0-6.61.07-9.92-.06-1,0-1.93,0-3,0,.18.33.31.56.45.79h12a.68.68,0,0,1-.65.51,41,41,0,0,1-6-.06,51,51,0,0,0-5.23-.18h0c.27.79.8,1,1.64,1,2.79-.06,5.59,0,8.39,0,.18,0,.37-.07.54.07-.38.49-.44.6-.7.58-1.45-.15-3,.48-4.34-.41a.4.4,0,0,0-.24-.07H16.66a2.36,2.36,0,0,0,2.11,1.14c1.86,0,3.73,0,5.6,0h.73c0,.06,0,.11.07.16l-1.75,1.71a3,3,0,0,1-2.17.9c-1.57,0-3.14,0-4.71,0-.18,0-.39-.07-.54.1l-3,3.47c2.77,0,5.39,0,8,0a5.63,5.63,0,0,0,4-1.71c2.62-2.59,5.21-5.21,7.83-7.81C33.15,20,33.15,19.86,32.83,19.54Z" style="fill:#fff"/></g></svg>